SplineFontDB: 3.2
FontName: AntiqueGrotesk
FullName: Antique Grotesk
FamilyName: Antique Grotesk
Weight: Regular
Copyright: Copyright (c) 2022, RandomMaerks
UComments: "2022-7-26: Created with FontForge (http://fontforge.org)"
Version: 1.0
ItalicAngle: 0
UnderlinePosition: -100
UnderlineWidth: 50
Ascent: 800
Descent: 200
InvalidEm: 0
LayerCount: 2
Layer: 0 0 "Back" 1
Layer: 1 0 "Fore" 0
XUID: [1021 36 -67577861 17700]
FSType: 0
OS2Version: 0
OS2_WeightWidthSlopeOnly: 0
OS2_UseTypoMetrics: 1
CreationTime: 1658825726
ModificationTime: 1659425383
PfmFamily: 33
TTFWeight: 400
TTFWidth: 5
LineGap: 90
VLineGap: 0
OS2TypoAscent: 0
OS2TypoAOffset: 1
OS2TypoDescent: 0
OS2TypoDOffset: 1
OS2TypoLinegap: 90
OS2WinAscent: 0
OS2WinAOffset: 1
OS2WinDescent: 0
OS2WinDOffset: 1
HheadAscent: 0
HheadAOffset: 1
HheadDescent: 0
HheadDOffset: 1
OS2Vendor: 'Rand'
Lookup: 1 0 0 "'hist' Historical Forms in Latin lookup 9" { "'hist' Historical Forms in Latin lookup 9-1" ("hist") } ['hist' ('DFLT' <'dflt' > 'latn' <'dflt' > ) ]
Lookup: 1 0 0 "'ss01' Style Set 1 in Latin lookup 0" { "'ss01' Style Set 1 in Latin lookup 0-1" ("ss01") } ['ss01' ('DFLT' <'dflt' > 'latn' <'dflt' > ) ]
Lookup: 1 0 0 "'ss02' Style Set 2 in Latin lookup 1" { "'ss02' Style Set 2 in Latin lookup 1-1" ("ss02") } ['ss02' ('DFLT' <'dflt' > 'latn' <'dflt' > ) ]
Lookup: 1 0 0 "'ss03' Style Set 3 in Latin lookup 2" { "'ss03' Style Set 3 in Latin lookup 2-1" ("ss03") } ['ss03' ('DFLT' <'dflt' > 'latn' <'dflt' > ) ]
Lookup: 1 0 0 "'ss04' Style Set 4 in Latin lookup 3" { "'ss04' Style Set 4 in Latin lookup 3-1" ("ss04") } ['ss04' ('DFLT' <'dflt' > 'latn' <'dflt' > ) ]
Lookup: 1 0 0 "'ss06' Style Set 6 in Latin lookup 5" { "'ss06' Style Set 6 in Latin lookup 5-1" ("ss06") } ['ss06' ('DFLT' <'dflt' > 'latn' <'dflt' > ) ]
Lookup: 1 0 0 "'ss05' Style Set 5 in Latin lookup 4" { "'ss05' Style Set 5 in Latin lookup 4-1" ("ss05") } ['ss05' ('DFLT' <'dflt' > 'latn' <'dflt' > ) ]

StartChar: n
Encoding: 110 110 0
Width: 495
Flags: W
HStem: 0 21G<38 177 318 457> 0 21G<38 177 318 457> 403 118<221.875 348.919> 492 20G<38 177>
VStem: 38 139<0 384.987 460.477 512> 318 139<0 384.941>
LayerCount: 2
Fore
SplineSet
38 512 m 1x9c
 177 512 l 1x9c
 177 460.477122562 l 1
 207.123963529 497.714575003 250.93596237 521 300.01953125 521 c 0
 397.819335938 521 457 457.288085938 457 352 c 2
 457 0 l 1
 318 0 l 1
 318 332 l 2
 318 372.314453125 288.700195312 403 250.205078125 403 c 0xac
 220.801467243 403 192.117634459 386.226500339 177 362.714914093 c 1
 177 0 l 1
 38 0 l 1
 38 512 l 1x9c
EndSplineSet
EndChar

StartChar: h
Encoding: 104 104 1
Width: 495
Flags: W
HStem: 0 21G<38 177 318 457> 0 21G<38 177 318 457> 403 118<221.875 348.92> 656 20G<38 177>
VStem: 38 139<0 384.987 460.477 676> 318 139<0 384.942>
LayerCount: 2
Fore
SplineSet
38 676 m 1xbc
 177 676 l 1
 177 460.476892008 l 1
 207.123986449 497.714427969 250.936011681 521 300.01953125 521 c 0
 397.819823811 521 457 457.288572359 457 352 c 2
 457 0 l 1
 318 0 l 1
 318 332 l 2
 318 372.314920912 288.700105077 403 250.205078125 403 c 0
 220.801529902 403 192.117667546 386.226332382 177 362.714719723 c 1
 177 0 l 1
 38 0 l 1
 38 676 l 1xbc
EndSplineSet
EndChar

StartChar: m
Encoding: 109 109 2
Width: 775
Flags: W
HStem: 0 21G<38 177 318 457 598 737> 0 21G<38 177 318 457 598 737> 403 118<221.875 333.865 501.682 628.92> 492 20G<38 177>
VStem: 38 139<0 384.987 460.477 512> 318 139<0 384.841> 598 139<0 384.942>
CounterMasks: 1 0e
LayerCount: 2
Fore
SplineSet
38 512 m 1x9e
 177 512 l 1x9e
 177 460.476892008 l 1
 207.123986449 497.714427969 250.936011681 521 300.01953125 521 c 0
 367.711110964 521 416.901376896 490.478468088 440.773100405 436.774607986 c 1
 469.971188885 487.573996626 521.211794277 521 580.01953125 521 c 0
 677.819823811 521 737 457.288572359 737 352 c 2
 737 0 l 1
 598 0 l 1
 598 332 l 2
 598 372.314920912 568.700105077 403 530.205078125 403 c 0
 500.673203333 403 471.86731 386.079601497 456.802841109 362.406498754 c 0
 456.93402529 358.98456577 457.000000026 355.515458223 457 352 c 2
 457 0 l 1
 318 0 l 1
 318 332 l 2
 318 372.314920912 288.700105077 403 250.205078125 403 c 0xae
 220.801529902 403 192.117667546 386.226332382 177 362.714719723 c 1
 177 0 l 1
 38 0 l 1
 38 512 l 1x9e
EndSplineSet
EndChar

StartChar: u
Encoding: 117 117 3
Width: 475
Flags: W
HStem: -9 118<139.195 258.699> 0 21G<298 437> 0 21G<298 437> 492 20G<38 177 298 437>
VStem: 38 139<126.973 512> 298 139<0 48.255 121.078 512>
LayerCount: 2
Fore
SplineSet
437 0 m 1x5c
 298 0 l 1x5c
 298 48.255017779 l 1
 269.807086993 12.9281667624 229.725464773 -9 184.98046875 -9 c 0
 93.4102692275 -9 38 54.7114276413 38 160 c 2
 38 512 l 1
 177 512 l 1
 177 180 l 2
 177 139.685079088 205.003342285 109 241.794921875 109 c 0x9c
 263.926545272 109 285.545745727 124.009704898 298 145.53408642 c 1
 298 512 l 1
 437 512 l 1
 437 0 l 1x5c
EndSplineSet
Substitution2: "'ss06' Style Set 6 in Latin lookup 5-1" u.ss06
EndChar

StartChar: i
Encoding: 105 105 4
Width: 215
Flags: W
HStem: 0 21G<38 177> 0 21G<38 177> 492 20G<38 177> 564 108<38 177>
VStem: 38 139<0 512 564 672>
LayerCount: 2
Fore
SplineSet
38 512 m 5xb8
 177 512 l 5
 177 0 l 5
 38 0 l 5
 38 512 l 5xb8
38 672 m 1
 177 672 l 1
 177 564 l 1
 38 564 l 1
 38 672 l 1
EndSplineSet
EndChar

StartChar: l
Encoding: 108 108 5
Width: 215
Flags: W
HStem: 0 21G<38 177> 0 21G<38 177> 656 20G<107.5 177>
VStem: 38 139<0 636>
LayerCount: 2
Fore
SplineSet
38 636 m 5xb0
 177 676 l 5
 177 0 l 5
 38 0 l 5
 38 636 l 5xb0
EndSplineSet
EndChar

StartChar: t
Encoding: 116 116 6
Width: 352
Flags: W
HStem: 0 21G<106 245> 0 21G<106 245> 386 126<10 106 245 342> 656 20G<205.286 245>
VStem: 106 139<0 386 512 606>
LayerCount: 2
Fore
SplineSet
106 606 m 5xb8
 245 676 l 5
 245 512 l 5
 342 512 l 5
 342 386 l 5
 245 386 l 5
 245 0 l 5
 106 0 l 5
 106 386 l 5
 10 386 l 5
 10 512 l 5
 106 512 l 5
 106 606 l 5xb8
EndSplineSet
EndChar

StartChar: e
Encoding: 101 101 7
Width: 478
Flags: W
HStem: -10 108<191.16 286.84> 232 101<171 307> 414 108<187.387 290.613>
VStem: 32 139<117.199 232 333 394.801> 307 139<116.381 169 333 394.801>
LayerCount: 2
Fore
SplineSet
307 333 m 1
 307 393 278 414 239 414 c 0
 200 414 171 393 171 333 c 1
 307 333 l 1
32 353 m 2
 32 458 110 522 239 522 c 0
 368 522 446 458 446 353 c 2
 446 232 l 1
 171 232 l 1
 171 169 l 2
 171 129 200 98 239 98 c 0
 278 98 307 129 307 169 c 1
 446 169 l 1
 446 149 l 2
 446 44 368 -10 239 -10 c 0
 110 -10 32 54 32 159 c 2
 32 353 l 2
EndSplineSet
EndChar

StartChar: o
Encoding: 111 111 8
Width: 478
Flags: W
HStem: -10 108<191.16 286.84> 414 108<191.16 286.84>
VStem: 32 139<117.199 394.801> 307 139<117.199 394.801>
LayerCount: 2
Fore
SplineSet
32 353 m 6
 32 458 110 522 239 522 c 4
 368 522 446 458 446 353 c 6
 446 159 l 6
 446 54 368 -10 239 -10 c 4
 110 -10 32 54 32 159 c 6
 32 353 l 6
171 169 m 6
 171 129 200 98 239 98 c 4
 278 98 307 129 307 169 c 6
 307 343 l 6
 307 383 278 414 239 414 c 4
 200 414 171 383 171 343 c 6
 171 169 l 6
EndSplineSet
EndChar

StartChar: c
Encoding: 99 99 9
Width: 478
Flags: W
HStem: -10 108<191.16 286.84> 414 108<191.16 286.84>
VStem: 32 139<117.199 394.801> 307 139<116.381 169 343 395.619>
LayerCount: 2
Fore
SplineSet
32 353 m 6
 32 458 110 522 239 522 c 4
 368 522 446 468 446 363 c 6
 446 343 l 5
 307 343 l 5
 307 383 278 414 239 414 c 4
 200 414 171 383 171 343 c 6
 171 169 l 6
 171 129 200 98 239 98 c 4
 278 98 307 129 307 169 c 5
 446 169 l 5
 446 149 l 6
 446 44 368 -10 239 -10 c 4
 110 -10 32 54 32 159 c 6
 32 353 l 6
EndSplineSet
EndChar

StartChar: a
Encoding: 97 97 10
Width: 484
Flags: W
HStem: -10 108<183.716 264.702> 0 21G<307 446> 0 21G<307 446> 414 108<187.387 286.84>
VStem: 32 139<112.188 181.305 333 394.801> 307 139<0 49 124.944 207.704 306.579 394.801>
LayerCount: 2
Fore
SplineSet
307 49 m 1x5c
 274.87890625 10.53125 235.147460938 -10 189 -10 c 0x9c
 91.1591796875 -10 32 46.42578125 32 139 c 0
 32 329.450842815 307 261.805441152 307 333 c 2
 307 343 l 2
 307 383 278 414 239 414 c 0
 200 414 171 393 171 333 c 1
 32 333 l 1
 32 353 l 2
 32 458 110 522 239 522 c 0
 368 522 446 458 446 353 c 2
 446 0 l 1
 307 0 l 1
 307 49 l 1x5c
171 149 m 0
 171 125.901367188 195.735351562 98 229 98 c 0
 273.735351562 98 307 139 307 179 c 2
 307 207.704101562 l 1
 275 198 171 206 171 149 c 0
EndSplineSet
Substitution2: "'ss02' Style Set 2 in Latin lookup 1-1" a.ss02
Substitution2: "'ss01' Style Set 1 in Latin lookup 0-1" a.ss01
EndChar

StartChar: s
Encoding: 115 115 11
Width: 478
Flags: W
HStem: -10 108<197.217 297.939> 414 108<180.061 280.783>
VStem: 32 139<126.048 179 338.55 403.861> 307 139<108.139 170.472 333 385.952>
LayerCount: 2
Fore
SplineSet
239 522 m 4
 368 522 446 458 446 353 c 6
 446 333 l 5
 307 333 l 5
 307 378.633789062 273.735351562 414 229 414 c 4
 195.735351562 414 171 396.098632812 171 373 c 4
 171 340.292986065 207.026420508 326.270583856 252.999998194 312.877302542 c 4
 334.044075947 289.267085828 446 267.611929041 446 149 c 4
 446 50.212890625 368 -10 239 -10 c 4
 110 -10 32 54 32 159 c 6
 32 179 l 5
 171 179 l 5
 171 133.366210938 204.264648438 98 249 98 c 4
 282.264648438 98 307 115.901367188 307 139 c 4
 307 170.444105774 261.210169876 183.91667886 207.0000019 200.930258401 c 4
 128.359856332 225.61105947 32 257.743534247 32 363 c 4
 32 461.787109375 110 522 239 522 c 4
EndSplineSet
Substitution2: "'hist' Historical Forms in Latin lookup 9-1" s.hist
EndChar

StartChar: r
Encoding: 114 114 12
Width: 439
Flags: W
HStem: 0 21G<38 177> 0 21G<38 177> 403 118<211.513 322.69> 492 20G<38 177>
VStem: 38 139<0 391.836 467.277 512> 278 139<270 389.491>
LayerCount: 2
Fore
SplineSet
38 512 m 1x9c
 177 512 l 1x9c
 177 467.277232907 l 1
 203.201969254 500.527631158 239.574289321 521 280.01953125 521 c 0
 365.359637733 521 417 457.288572359 417 352 c 2
 417 270 l 1
 278 270 l 1
 278 332 l 2
 278 372.314920912 257.343789327 403 230.205078125 403 c 0x2c
 209.34228105 403 188.956448874 388.365788126 177 367.275618585 c 1
 177 0 l 1
 38 0 l 1
 38 512 l 1x9c
EndSplineSet
Substitution2: "'ss07' Style Set 7 in Latin lookup 6-1" r.ss07
EndChar

StartChar: g
Encoding: 103 103 13
Width: 469
Flags: W
HStem: -260 118<173.882 280.118> -16 118<172.085 278.321> 140 118<177.755 272.931> 404 118<179.16 276.394>
VStem: 20 139<-125.27 -29.8601 278.119 382.622> 40 119<73.1263 137.36> 295 139<-125.67 -32.3297 279.416 385.831>
LayerCount: 2
Fore
SplineSet
159 -81 m 2xfa
 159 -121 188 -142 227 -142 c 0
 266 -142 295 -121 295 -81 c 2
 295 -77 l 2
 295 -37 266 -16 227 -16 c 0
 188 -16 159 -37 159 -77 c 2
 159 -81 l 2xfa
159 329 m 2
 159 289 188 258 227 258 c 0
 266 258 295 289 295 329 c 2
 295 333 l 2
 295 373 266 404 227 404 c 0
 188 404 159 373 159 333 c 2
 159 329 l 2
301 605 m 1
 461 605 l 1
 371.149414062 482.803710938 l 1
 411.670898438 451.373046875 434 403.506835938 434 343 c 2
 434 319 l 2
 434 207.787109375 355.998046875 140.91796875 227 140 c 0
 169.522460938 139.590820312 159 136.110351562 159 121 c 0xf6
 159 111.333007812 171.135742188 102.650390625 227 102 c 0
 356 102 434 44.603515625 434 -67 c 2
 434 -91 l 2
 434 -202.603515625 356 -260 227 -260 c 0
 98 -260 20 -212.791992188 20 -121 c 2
 20 -87 l 2xfa
 20 -47.0634765625 48 8.1484375 139.3359375 8.1484375 c 1
 68 22 40 40.50390625 40 89 c 0xf6
 40 130.481445312 74 158.428710938 120.880859375 158.428710938 c 1
 56.5087890625 186.250976562 20 242.392578125 20 319 c 2
 20 343 l 2
 20 454.212890625 98 522 227 522 c 0
 253.979492188 522 278.728515625 519.200195312 301 513.811523438 c 1
 301 605 l 1
EndSplineSet
Substitution2: "'ss05' Style Set 5 in Latin lookup 4-1" g.ss05
EndChar

StartChar: j
Encoding: 106 106 14
Width: 215
Flags: W
HStem: -200 131<-42 37.1092> 492 20G<38 177> 564 108<38 177>
VStem: 38 139<-68.5461 512 564 672>
LayerCount: 2
Fore
SplineSet
38 512 m 5
 177 512 l 5
 177 -81 l 6
 177 -165.572327044 145.647058824 -200 47 -200 c 6
 -42 -200 l 5
 -42 -69 l 5
 8 -69 l 6
 32.8571428571 -69 38 -59.7435897436 38 -31 c 6
 38 512 l 5
38 672 m 1
 177 672 l 1
 177 564 l 1
 38 564 l 1
 38 672 l 1
EndSplineSet
EndChar

StartChar: k
Encoding: 107 107 15
Width: 495
Flags: W
HStem: 0 21G<38 186.713 330.756 482> 0 21G<38 186.713 330.756 482> 492 20G<313.413 472> 656 20G<38 177>
VStem: 38 139<207.426 676>
LayerCount: 2
Fore
SplineSet
38 676 m 5xb8
 177 676 l 5
 177 207.425641026 l 5
 323 512 l 5
 472 512 l 5
 328.889648438 253.461914062 l 5
 482 0 l 5
 343 0 l 5
 250.43359375 151.200195312 l 5
 177 0 l 5
 38 0 l 5
 38 676 l 5xb8
EndSplineSet
EndChar

StartChar: b
Encoding: 98 98 16
Width: 482
Flags: W
HStem: -10 108<198.577 294.691> 0 21G<38 177> 0 21G<38 177> 414 108<198.577 294.691> 656 20G<38 177>
VStem: 38 139<0 27.9505 111.387 400.613 484.049 676> 313 139<117.199 394.801>
LayerCount: 2
Fore
SplineSet
177 133.267698976 m 1x9e
 190.097254828 111.975735736 214.962983706 98 245 98 c 0
 284 98 313 129 313 169 c 2
 313 343 l 2
 313 383 284 414 245 414 c 0
 214.962983706 414 190.097254828 400.024264264 177 378.732301024 c 1
 177 133.267698976 l 1x9e
38 676 m 1
 177 676 l 1
 177 484.049453175 l 1
 203.605715569 508.616685801 240.258466299 522 285 522 c 0
 389.072463768 522 452 458 452 353 c 2
 452 159 l 2
 452 54 389.072463768 -10 285 -10 c 0x9e
 240.258466299 -10 203.605715569 3.38331419925 177 27.9505468249 c 1
 177 0 l 1
 38 0 l 1x5e
 38 676 l 1
EndSplineSet
EndChar

StartChar: d
Encoding: 100 100 17
Width: 482
Flags: W
HStem: -10 108<195.309 291.423> 0 21G<313 452> 0 21G<313 452> 414 108<195.309 291.423> 656 20G<313 452>
VStem: 38 139<117.199 394.801> 313 139<0 27.9502 111.387 400.613 484.05 676>
LayerCount: 2
Fore
SplineSet
313 133.267578125 m 5x9e
 313 378.732421875 l 5
 299.90234375 400.024414062 275.037109375 414 245 414 c 4
 206 414 177 383 177 343 c 6
 177 169 l 6
 177 129 206 98 245 98 c 4
 275.037109375 98 299.90234375 111.975585938 313 133.267578125 c 5x9e
452 676 m 5
 452 0 l 5
 313 0 l 5x5e
 313 27.9501953125 l 5
 286.39453125 3.3837890625 249.741210938 -10 205 -10 c 4
 100.927734375 -10 38 54 38 159 c 6
 38 353 l 6
 38 458 100.927734375 522 205 522 c 4
 249.741210938 522 286.39453125 508.616210938 313 484.049804688 c 5
 313 676 l 5
 452 676 l 5
EndSplineSet
EndChar

StartChar: p
Encoding: 112 112 18
Width: 482
Flags: W
HStem: -10 108<198.577 294.691> 414 108<198.577 294.691> 492 20G<38 177>
VStem: 38 139<-164 27.9502 111.387 400.613 484.05 512> 313 139<117.199 394.801>
LayerCount: 2
Fore
SplineSet
177 378.732421875 m 1xd8
 177 133.267578125 l 1
 190.09765625 111.975585938 214.962890625 98 245 98 c 0
 284 98 313 129 313 169 c 2
 313 343 l 2
 313 383 284 414 245 414 c 0
 214.962890625 414 190.09765625 400.024414062 177 378.732421875 c 1xd8
38 -164 m 1
 38 512 l 1
 177 512 l 1xb8
 177 484.049804688 l 1
 203.60546875 508.6171875 240.258789062 522 285 522 c 0
 389.072265625 522 452 458 452 353 c 2
 452 159 l 2
 452 54 389.072265625 -10 285 -10 c 0
 240.258789062 -10 203.60546875 3.3828125 177 27.9501953125 c 1
 177 -164 l 1
 38 -164 l 1
EndSplineSet
EndChar

StartChar: q
Encoding: 113 113 19
Width: 482
Flags: W
HStem: -10 108<195.309 291.423> 414 108<195.309 291.423> 492 20G<313 452>
VStem: 38 139<117.199 394.801> 313 139<-164 27.9502 111.387 400.613 484.05 512>
LayerCount: 2
Fore
SplineSet
313 378.732421875 m 1xd8
 299.902745172 400.024312154 275.037016294 414 245 414 c 0
 206 414 177 383 177 343 c 2
 177 169 l 2
 177 129 206 98 245 98 c 0
 275.037016294 98 299.902745172 111.975687846 313 133.267578125 c 1
 313 378.732421875 l 1xd8
452 -164 m 1
 313 -164 l 1
 313 27.9501953125 l 1
 286.394284431 3.3831902379 249.741533701 -10 205 -10 c 0
 100.927536232 -10 38 54 38 159 c 2
 38 353 l 2
 38 458 100.927536232 522 205 522 c 0xd8
 249.741533701 522 286.394284431 508.616809762 313 484.049804688 c 1
 313 512 l 1
 452 512 l 1xb8
 452 -164 l 1
EndSplineSet
EndChar

StartChar: f
Encoding: 102 102 20
Width: 399
Flags: W
HStem: 0 21G<118 257> 0 21G<118 257> 386 126<10 118 257.037 389> 586 131<266.859 387>
VStem: 118 139<0 386 512 578.033>
LayerCount: 2
Fore
SplineSet
257 0 m 1xb8
 118 0 l 1
 118 386 l 1
 10 386 l 1
 10 512 l 1
 118 512 l 1
 118 578 l 2
 118 676.78609178 156.587740385 717 278 717 c 2
 387 717 l 1
 387 586 l 1
 317 586 l 2
 269.638658125 586 258.039682965 567.73805147 257.037109375 512 c 1
 389 512 l 1
 389 386 l 1
 257 386 l 1
 257 0 l 1xb8
EndSplineSet
EndChar

StartChar: v
Encoding: 118 118 21
Width: 509
Flags: W
HStem: 0 94.1719<135 374> 492 20G<15 168.332 340.668 494>
VStem: 15 149<363 512> 345 149<363 512>
LayerCount: 2
Fore
SplineSet
15 512 m 5
 164 512 l 5
 254.5 94.171875 l 5
 345 512 l 5
 494 512 l 5
 374 0 l 5
 135 0 l 5
 15 512 l 5
EndSplineSet
EndChar

StartChar: w
Encoding: 119 119 22
Width: 839
Flags: W
HStem: 0 21G<120.703 366.967 481.499 727.906> 0 21G<120.703 366.967 481.499 727.906> 492 20G<15 167.853 311.625 527.853 671.625 824>
VStem: 15 149<363 512> 675 149<363 512>
LayerCount: 2
Fore
SplineSet
15 512 m 1xb8
 164 512 l 1
 244.5 94.171875 l 1
 315 512 l 1
 524 512 l 1
 604.5 94.171875 l 1
 675 512 l 1
 824 512 l 1
 724 0 l 1
 485 0 l 1
 419.5 374.133789062 l 1
 364 0 l 1
 125 0 l 1
 15 512 l 1xb8
EndSplineSet
EndChar

StartChar: x
Encoding: 120 120 23
Width: 509
Flags: W
HStem: 0 21G<15 173.013 335.987 494> 0 21G<15 173.013 335.987 494> 200.828 108.344<200.328 308.672> 492 20G<15 172.924 336.076 494>
LayerCount: 2
Fore
SplineSet
15 512 m 1xb0
 164 512 l 1
 254.5 309.171875 l 1
 345 512 l 1
 494 512 l 1
 374 255 l 1
 494 0 l 1
 345 0 l 1
 254.5 200.828125 l 1
 164 0 l 1
 15 0 l 1
 135 255 l 1
 15 512 l 1xb0
EndSplineSet
EndChar

StartChar: y
Encoding: 121 121 24
Width: 509
Flags: W
HStem: -168 262.172<63.9141 465.086> 492 20G<15 168.332 340.668 494>
VStem: 15 149<363 512> 195 139<-168 -29> 345 149<363 512>
LayerCount: 2
Fore
SplineSet
15 512 m 5
 164 512 l 5
 254.5 94.171875 l 5
 345 512 l 5
 494 512 l 5
 334 -168 l 5
 195 -168 l 5
 235 0 l 5
 135 0 l 5
 15 512 l 5
EndSplineSet
Substitution2: "'ss08' Style Set 8 in Latin lookup 7-1" y.ss08
EndChar

StartChar: z
Encoding: 122 122 25
Width: 432
Flags: W
HStem: 0 126<152 412> 386 126<20 280>
LayerCount: 2
Fore
SplineSet
412 126 m 5
 412 0 l 5
 20 0 l 5
 20 176 l 5
 280 386 l 5
 20 386 l 5
 20 512 l 5
 412 512 l 5
 412 336 l 5
 152 126 l 5
 412 126 l 5
EndSplineSet
EndChar

StartChar: N
Encoding: 78 78 27
Width: 515
Flags: W
HStem: 0 21G<38 177 347.44 477> 0 21G<38 177 347.44 477> 656 20G<38 167.56 338 477>
VStem: 38 139<0 342.787> 338 139<333.213 676>
LayerCount: 2
Fore
SplineSet
338 676 m 1xb8
 477 676 l 1
 477 0 l 1
 358 0 l 1
 177 342.787109375 l 1
 177 0 l 1
 38 0 l 1
 38 676 l 1
 157 676 l 1
 338 333.212890625 l 1
 338 676 l 1xb8
EndSplineSet
EndChar

StartChar: P
Encoding: 80 80 28
Width: 517
Flags: W
HStem: 0 21G<38 177> 0 21G<38 177> 294 108<177 333.932> 568 108<177 333.918>
VStem: 38 139<0 294 402 568> 356 139<421.199 548.801>
LayerCount: 2
Fore
SplineSet
288 676 m 6xbc
 416.951476434 676 495 612 495 507 c 6
 495 463 l 6
 495 358 417 294 288 294 c 6
 177 294 l 5
 177 0 l 5
 38 0 l 5
 38 676 l 5
 288 676 l 6xbc
177 568 m 5
 177 402 l 5
 288 402 l 6
 327 402 356 433 356 473 c 6
 356 497 l 6
 356 537 327 568 288 568 c 6
 177 568 l 5
EndSplineSet
EndChar

StartChar: I
Encoding: 73 73 29
Width: 215
Flags: W
HStem: 0 21G<38 177> 0 21G<38 177> 656 20G<38 177>
VStem: 38 139<0 676>
LayerCount: 2
Fore
SplineSet
38 676 m 5xb0
 177 676 l 5
 177 0 l 5
 38 0 l 5
 38 676 l 5xb0
EndSplineSet
EndChar

StartChar: H
Encoding: 72 72 30
Width: 515
Flags: W
HStem: 0 21G<38 177 338 477> 0 21G<38 177 338 477> 274 133<177 338> 656 20G<38 177 338 477>
VStem: 38 139<0 274 407 676> 338 139<0 274 407 676>
LayerCount: 2
Fore
SplineSet
338 676 m 1xbc
 477 676 l 1
 477 0 l 1
 338 0 l 1
 338 274 l 1
 177 274 l 1
 177 0 l 1
 38 0 l 1
 38 676 l 1
 177 676 l 1
 177 407 l 1
 338 407 l 1
 338 676 l 1xbc
EndSplineSet
EndChar

StartChar: M
Encoding: 77 77 31
Width: 713
Flags: W
HStem: 0 188.683<192.659 520.341> 0 21G<38 177 536 675> 656 20G<38 165.188 547.812 675>
VStem: 38 139<0 298.635> 536 139<0 298.635>
LayerCount: 2
Fore
SplineSet
536 298.634765625 m 1x78
 426 0 l 1
 287 0 l 1xb8
 177 298.634765625 l 1
 177 0 l 1
 38 0 l 1x78
 38 676 l 1
 157 676 l 1
 356.5 188.682617188 l 1xb8
 556 676 l 1
 675 676 l 1
 675 0 l 1
 536 0 l 1
 536 298.634765625 l 1x78
EndSplineSet
EndChar

StartChar: L
Encoding: 76 76 32
Width: 416
Flags: W
HStem: 0 136<177 396> 656 20G<38 177>
VStem: 38 139<136 676>
LayerCount: 2
Fore
SplineSet
38 676 m 5
 177 676 l 5
 177 136 l 5
 396 136 l 5
 396 0 l 5
 38 0 l 5
 38 676 l 5
EndSplineSet
EndChar

StartChar: colon
Encoding: 58 58 33
Width: 215
Flags: W
HStem: 100 112<38 177> 400 112<38 177>
VStem: 38 139<100 212 400 512>
LayerCount: 2
Fore
SplineSet
38 512 m 1
 177 512 l 1
 177 400 l 1
 38 400 l 1
 38 512 l 1
38 212 m 1
 177 212 l 1
 177 100 l 1
 38 100 l 1
 38 212 l 1
EndSplineSet
EndChar

StartChar: O
Encoding: 79 79 34
Width: 478
Flags: W
HStem: -10 108<191.16 286.84> 583 108<191.16 286.84>
VStem: 32 139<117.199 563.801> 307 139<117.199 563.801>
LayerCount: 2
Fore
SplineSet
32 522 m 6
 32 627 110 691 239 691 c 4
 368 691 446 627 446 522 c 6
 446 159 l 6
 446 54 368 -10 239 -10 c 4
 110 -10 32 54 32 159 c 6
 32 522 l 6
171 169 m 6
 171 129 200 98 239 98 c 4
 278 98 307 129 307 169 c 6
 307 512 l 6
 307 552 278 583 239 583 c 4
 200 583 171 552 171 512 c 6
 171 169 l 6
EndSplineSet
Substitution2: "'ss09' Style Set 9 in Latin lookup 8-1" O.ss09
EndChar

StartChar: C
Encoding: 67 67 35
Width: 478
Flags: W
HStem: -10 108<191.16 286.84> 512 21G<307 446> 583 108<191.16 286.84>
VStem: 32 139<117.199 563.801> 307 139<116.381 169 512 564.619>
LayerCount: 2
Fore
SplineSet
32 522 m 6
 32 627 110 691 239 691 c 4
 368 691 446 637 446 532 c 6
 446 512 l 5
 307 512 l 5
 307 552 278 583 239 583 c 4
 200 583 171 552 171 512 c 6
 171 169 l 6
 171 129 200 98 239 98 c 4
 278 98 307 129 307 169 c 5
 446 169 l 5
 446 149 l 6
 446 44 368 -10 239 -10 c 4
 110 -10 32 54 32 159 c 6
 32 522 l 6
EndSplineSet
EndChar

StartChar: Q
Encoding: 81 81 36
Width: 478
Flags: W
HStem: 583 108<191.16 286.84>
VStem: 32 139<119.266 563.801> 307 139<116.169 563.801>
LayerCount: 2
Fore
SplineSet
32 522 m 6
 32 627 110 691 239 691 c 4
 368 691 446 627 446 522 c 6
 446 159 l 6
 446 84.3793252885 406.605612938 30.465956597 337.507945656 5.51528123637 c 5
 448 -7 l 5
 448 -145 l 5
 160.057872671 -0.563010563315 l 5
 78.8794332984 20.8384660723 32 77.5983563359 32 159 c 6
 32 522 l 6
171 169 m 6
 171 129 200 98 239 98 c 4
 278 98 307 129 307 169 c 6
 307 512 l 6
 307 552 278 583 239 583 c 4
 200 583 171 552 171 512 c 6
 171 169 l 6
EndSplineSet
Substitution2: "'ss03' Style Set 3 in Latin lookup 2-1" Q.ss03
EndChar

StartChar: G
Encoding: 71 71 37
Width: 478
Flags: W
HStem: -10 108<122.867 238.062> 0 21G<360.432 446> 0 21G<360.432 446> 512 21G<307 446> 583 108<191.16 286.84>
VStem: 32 139<112.872 563.801> 307 139<172.433 334 512 564.619>
LayerCount: 2
Fore
SplineSet
32 522 m 2x9e
 32 627 110 691 239 691 c 0
 368 691 446 637 446 532 c 2
 446 512 l 1
 307 512 l 1
 307 552 278 583 239 583 c 0
 200 583 171 552 171 512 c 2
 171 169 l 2
 171 129 191.470588235 98 219 98 c 0x9e
 257.871432851 98 290.050611399 159.528784223 307 253.267578125 c 1
 307 334 l 1
 446 334 l 1
 446 0 l 1
 377 0 l 1x5e
 307 84.5 l 1
 268.238163541 21.7727003351 218.76506157 -10 169 -10 c 0
 76.7346938776 -10 32 54 32 159 c 2
 32 522 l 2x9e
EndSplineSet
EndChar

StartChar: K
Encoding: 75 75 38
Width: 495
Flags: W
HStem: 0 21G<38 183.183 314.953 482> 0 21G<38 183.183 314.953 482> 656 20G<38 177 314.991 472>
VStem: 38 139<0 22.6442 311.426 676>
LayerCount: 2
Fore
SplineSet
38 676 m 1xb0
 177 676 l 1
 177 311.42578125 l 1
 323 676 l 1
 472 676 l 1
 338.889648438 347.461914062 l 1
 482 0 l 1
 323 0 l 5
 240.43359375 205.200195312 l 1
 177 0 l 1
 38 0 l 1
 38 676 l 1xb0
EndSplineSet
EndChar

StartChar: V
Encoding: 86 86 39
Width: 585
Flags: W
HStem: 0 94.1719<173 412> 656 20G<15 168.417 416.583 570>
VStem: 15 149<527 676> 421 149<527 676>
LayerCount: 2
Fore
SplineSet
15 676 m 5
 164 676 l 5
 292.5 94.171875 l 5
 421 676 l 5
 570 676 l 5
 412 0 l 5
 173 0 l 5
 15 676 l 5
EndSplineSet
EndChar

StartChar: A
Encoding: 65 65 40
Width: 585
Flags: W
HStem: 0 21G<15 168.417 416.583 570> 0 21G<15 168.417 416.583 570> 142 128<223.631 361.369> 581.828 94.1719<173 412>
LayerCount: 2
Fore
SplineSet
570 0 m 1xb0
 421 0 l 1
 389.638504713 142 l 1
 195.361495287 142 l 1
 164 0 l 1
 15 0 l 1
 173 676 l 1
 412 676 l 1
 570 0 l 1xb0
361.368987835 270 m 1
 292.5 581.828125 l 1
 223.631012165 270 l 1
 361.368987835 270 l 1
EndSplineSet
EndChar

StartChar: T
Encoding: 84 84 41
Width: 457
Flags: W
HStem: 0 21G<159 298> 0 21G<159 298> 540 136<20 159 298 437>
VStem: 159 139<0 540>
LayerCount: 2
Fore
SplineSet
298 0 m 1xb0
 159 0 l 1
 159 540 l 1
 20 540 l 1
 20 676 l 1
 437 676 l 1
 437 540 l 1
 298 540 l 1
 298 0 l 1xb0
EndSplineSet
EndChar

StartChar: R
Encoding: 82 82 42
Width: 517
Flags: W
HStem: 0 21G<38 177 329.5 496> 0 21G<38 177 329.5 496> 294 108<177 262.912> 568 108<177 333.918>
VStem: 38 139<0 294 402 568> 356 139<420.768 548.801>
LayerCount: 2
Fore
SplineSet
177 568 m 1x3c
 177 402 l 1
 288 402 l 2
 327 402 356 433 356 473 c 2
 356 497 l 2
 356 537 327 568 288 568 c 2
 177 568 l 1x3c
288 676 m 2
 416.951476434 676 495 612 495 507 c 2
 495 463 l 2
 495 387.20659931 434.357421875 342.776367188 363.228515625 338.360351562 c 1
 424 320 442 88 496 0 c 1
 347 0 l 1
 312 86 310 258 239.48046875 294 c 1
 177 294 l 1
 177 0 l 1
 38 0 l 1xbc
 38 676 l 1
 288 676 l 2
EndSplineSet
Substitution2: "'ss04' Style Set 4 in Latin lookup 3-1" R.ss04
EndChar

StartChar: E
Encoding: 69 69 43
Width: 416
Flags: W
HStem: 0 136<177 396> 273 127<177 336> 540 136<177 396>
VStem: 38 358<0 136 540 676> 38 139<136 273 400 540>
LayerCount: 2
Fore
SplineSet
177 136 m 5xe8
 396 136 l 5
 396 0 l 5
 38 0 l 5
 38 676 l 5
 396 676 l 5
 396 540 l 5xf0
 177 540 l 5
 177 400 l 5
 336 400 l 5
 336 273 l 5
 177 273 l 5
 177 136 l 5xe8
EndSplineSet
EndChar

StartChar: F
Encoding: 70 70 44
Width: 416
Flags: W
HStem: 0 21G<38 177> 0 21G<38 177> 273 127<177 336> 540 136<177 396>
VStem: 38 139<0 273 400 540>
LayerCount: 2
Fore
SplineSet
177 0 m 1xb8
 38 0 l 1
 38 676 l 1
 396 676 l 1
 396 540 l 1
 177 540 l 1
 177 400 l 1
 336 400 l 1
 336 273 l 1
 177 273 l 1
 177 0 l 1xb8
EndSplineSet
EndChar

StartChar: W
Encoding: 87 87 45
Width: 991
Flags: W
HStem: 0 94.1719<163 402 589 828> 467.253 208.747<296.626 694.374>
VStem: 15 149<527 676> 827 149<527 676>
LayerCount: 2
Fore
SplineSet
15 676 m 1
 164 676 l 1
 282.5 94.171875 l 1
 401 676 l 1
 590 676 l 1
 708.5 94.171875 l 1
 827 676 l 1
 976 676 l 1
 828 0 l 1
 589 0 l 1
 495.5 467.252929688 l 1
 402 0 l 1
 163 0 l 1
 15 676 l 1
EndSplineSet
EndChar

StartChar: Z
Encoding: 90 90 46
Width: 432
Flags: W
HStem: 0 126<152 412> 550 126<20 280>
LayerCount: 2
Fore
SplineSet
412 126 m 1
 412 0 l 1
 20 0 l 1
 20 176 l 1
 280 550 l 1
 20 550 l 1
 20 676 l 1
 412 676 l 1
 412 500 l 1
 152 126 l 1
 412 126 l 1
EndSplineSet
EndChar

StartChar: X
Encoding: 88 88 47
Width: 585
Flags: W
HStem: 0 21G<15 173.119 411.881 570> 0 21G<15 173.119 411.881 570> 281.828 108.344<238.328 346.672> 656 20G<15 172.991 412.009 570>
LayerCount: 2
Fore
SplineSet
15 676 m 1xb0
 164 676 l 1
 292.5 390.171875 l 5
 421 676 l 1
 570 676 l 1
 412 336 l 5
 570 0 l 1
 421 0 l 1
 292.5 281.828125 l 5
 164 0 l 1
 15 0 l 1
 173 336 l 5
 15 676 l 1xb0
EndSplineSet
EndChar

StartChar: Y
Encoding: 89 89 48
Width: 509
Flags: W
HStem: 0 21G<197 340.675> 0 21G<197 340.675> 656 20G<15 169.32 340.739 494>
VStem: 15 149<527 676> 197 139<0 139> 345 149<527 676>
LayerCount: 2
Fore
SplineSet
15 676 m 1xbc
 164 676 l 1
 264.5 298.171875 l 1
 345 676 l 1
 494 676 l 1
 336 0 l 1
 197 0 l 1
 245 204 l 1
 145 204 l 1
 15 676 l 1xbc
EndSplineSet
EndChar

StartChar: S
Encoding: 83 83 49
Width: 478
Flags: W
HStem: -10 108<197.217 292.237> 576 108<185.763 280.783>
VStem: 32 139<126.048 179 452.464 563.008> 307 139<110.992 217.816 495 547.952>
LayerCount: 2
Fore
SplineSet
239 684 m 0
 368 684 446 620 446 515 c 2
 446 495 l 1
 307 495 l 1
 307 540.633789062 273.735351562 576 229 576 c 0
 195.735351562 576 171 549.366258574 171 515 c 0
 171 450.752135401 222.052936185 419.090502398 280.164678377 386 c 0
 356.924340791 342.290833877 446 296.088618525 446 169 c 0
 446 57.7868391313 368 -10 239 -10 c 0
 110 -10 32 54 32 159 c 2
 32 179 l 1
 171 179 l 1
 171 133.366210938 204.264648438 98 249 98 c 0
 282.264648438 98 307 124.633741426 307 159 c 0
 307 222.65974206 245.291102776 255.979648297 180.336877703 296 c 0
 108.171400985 340.463431838 32 393.19766969 32 505 c 0
 32 616.213160869 110 684 239 684 c 0
EndSplineSet
EndChar

StartChar: U
Encoding: 85 85 50
Width: 478
Flags: W
HStem: -10 108<191.16 286.84> 656 20G<32 171 307 446>
VStem: 32 139<117.199 676> 307 139<117.199 676>
LayerCount: 2
Fore
SplineSet
171 169 m 6
 171 129 200 98 239 98 c 4
 278 98 307 129 307 169 c 6
 307 676 l 5
 446 676 l 5
 446 159 l 6
 446 54 368 -10 239 -10 c 4
 110 -10 32 54 32 159 c 6
 32 676 l 5
 171 676 l 5
 171 169 l 6
EndSplineSet
EndChar

StartChar: D
Encoding: 68 68 51
Width: 517
Flags: W
HStem: 0 108<177 333.932> 568 108<177 333.918>
VStem: 38 139<108 568> 356 139<127.199 548.801>
LayerCount: 2
Fore
SplineSet
288 676 m 2
 416.951476434 676 495 612 495 507 c 2
 495 169 l 2
 495 64 417 -1.57974219643e-14 288 0 c 2
 38 0 l 1
 38 676 l 1
 288 676 l 2
177 568 m 1
 177 108 l 1
 288 108 l 2
 327 108 356 139 356 179 c 2
 356 497 l 2
 356 537 327 568 288 568 c 2
 177 568 l 1
EndSplineSet
EndChar

StartChar: J
Encoding: 74 74 52
Width: 478
Flags: W
HStem: -10 108<191.16 286.84> 656 20G<307 446>
VStem: 32 139<117.199 246> 307 139<117.199 676>
LayerCount: 2
Fore
SplineSet
171 169 m 2
 171 129 200 98 239 98 c 0
 278 98 307 129 307 169 c 2
 307 676 l 1
 446 676 l 1
 446 159 l 2
 446 54 368 -10 239 -10 c 0
 110 -10 32 54 32 159 c 2
 32 246 l 1
 171 246 l 1
 171 169 l 2
EndSplineSet
EndChar

StartChar: B
Encoding: 66 66 53
Width: 517
Flags: W
HStem: 0 108<177 333.766> 284 108<177 337.747> 568 108<177 333.932>
VStem: 38 139<108 284 392 568> 356 139<127.199 263.958 410.896 548.801>
CounterMasks: 1 e0
LayerCount: 2
Fore
SplineSet
177 284 m 5
 177 108 l 21
 288 108 l 6
 327 108 356 139 356 179 c 6
 356 213 l 6
 356 253 327 284 288 284 c 6
 177 284 l 5
177 568 m 5
 177 392 l 5
 288 392 l 6
 327 392 356 423 356 463 c 6
 356 497 l 6
 356 537 327 568 288 568 c 6
 177 568 l 5
288 676 m 6
 417 676 495 612 495 507 c 6
 495 453 l 6
 495 401.799758285 463.168726384 363.371145014 406.54504817 342.291044776 c 5
 463.168726384 319.57682824 495 278.169252701 495 223 c 6
 495 169 l 6
 495 64 416.422701992 0 288 0 c 6
 38 0 l 5
 38 676 l 5
 288 676 l 6
EndSplineSet
EndChar

StartChar: semicolon
Encoding: 59 59 54
Width: 215
Flags: W
HStem: 100 112<38 144.5> 400 112<38 177>
VStem: 38 139<100 212 400 512>
LayerCount: 2
Fore
SplineSet
38 512 m 5
 177 512 l 5
 177 400 l 5
 38 400 l 5
 38 512 l 5
38 212 m 5
 177 212 l 5
 177 100 l 5
 118 -50 l 5
 68 32 l 5
 144.5 100 l 5
 38 100 l 5
 38 212 l 5
EndSplineSet
EndChar

StartChar: zero
Encoding: 48 48 55
Width: 438
Flags: W
HStem: -10 108<182.151 255.849> 583 108<182.151 255.849>
VStem: 32 139<108.61 247.869 363.869 572.39> 267 139<108.61 310.479 426.479 572.39>
LayerCount: 2
Fore
SplineSet
171 169 m 2
 171 129 180 98 219 98 c 0
 258 98 267 129 267 169 c 2
 267 310.478515625 l 5
 171 247.869140625 l 5
 171 169 l 2
32 522 m 2
 32 627 90 691 219 691 c 0
 348 691 406 627 406 522 c 2
 406 159 l 2
 406 54 348 -10 219 -10 c 0
 90 -10 32 54 32 159 c 2
 32 522 l 2
267 426.478515625 m 5
 267 512 l 2
 267 552 258 583 219 583 c 0
 180 583 171 552 171 512 c 2
 171 363.869140625 l 5
 267 426.478515625 l 5
EndSplineSet
EndChar

StartChar: one
Encoding: 49 49 56
Width: 313
Flags: W
HStem: 0 21G<136 275> 0 21G<136 275> 656 20G<197.463 275>
VStem: 136 139<0 386>
LayerCount: 2
Fore
SplineSet
206 676 m 1xb0
 275 676 l 1
 275 0 l 1
 136 0 l 1
 136 386 l 1
 20 386 l 1
 20 492 l 5
 136 512 l 1
 206 676 l 1xb0
EndSplineSet
EndChar

StartChar: hyphen
Encoding: 45 45 57
Width: 384
Flags: W
HStem: 270 119<20 364>
LayerCount: 2
Fore
SplineSet
20 389 m 5
 364 389 l 5
 364 270 l 5
 20 270 l 5
 20 389 l 5
EndSplineSet
EndChar

StartChar: period
Encoding: 46 46 58
Width: 215
Flags: W
HStem: 0 112<38 177>
VStem: 38 139<0 112>
LayerCount: 2
Fore
SplineSet
38 112 m 5
 177 112 l 5
 177 0 l 5
 38 0 l 5
 38 112 l 5
EndSplineSet
EndChar

StartChar: comma
Encoding: 44 44 59
Width: 215
Flags: W
HStem: 0 112<38 144.5>
VStem: 38 139<0 112>
LayerCount: 2
Fore
SplineSet
38 112 m 5
 177 112 l 5
 177 0 l 5
 118 -150 l 5
 68 -68 l 5
 144.5 -8.881784197e-16 l 5
 38 0 l 5
 38 112 l 5
EndSplineSet
EndChar

StartChar: quotesingle
Encoding: 39 39 60
Width: 215
Flags: W
HStem: 474 218<58 107>
VStem: 38 139
LayerCount: 2
Fore
SplineSet
58 692 m 5
 177 692 l 5
 107 474 l 5
 38 474 l 5
 58 692 l 5
EndSplineSet
EndChar

StartChar: quotedbl
Encoding: 34 34 61
Width: 375
Flags: W
HStem: 474 218<58 107 218 267>
VStem: 38 299
LayerCount: 2
Fore
SplineSet
218 692 m 5
 337 692 l 5
 267 474 l 5
 198 474 l 5
 218 692 l 5
58 692 m 1
 177 692 l 1
 107 474 l 1
 38 474 l 1
 58 692 l 1
EndSplineSet
EndChar

StartChar: exclam
Encoding: 33 33 62
Width: 215
Flags: W
HStem: 0 108<38 177> 655 20G<38 177>
VStem: 38 139<0 108 160 675>
LayerCount: 2
Fore
SplineSet
177 160 m 1
 38 160 l 1
 38 675 l 1
 177 675 l 1
 177 160 l 1
177 0 m 5
 38 0 l 5
 38 108 l 5
 177 108 l 5
 177 0 l 5
EndSplineSet
EndChar

StartChar: a.ss01
Encoding: 1114112 -1 63
Width: 496
Flags: W
HStem: -10 108<183.716 264.702> -0.717663 129.471<373.422 477.579> 414 108<187.387 286.84>
VStem: 32 139<112.188 181.305 333 394.801> 307 139<129.443 207.704 306.579 394.801>
LayerCount: 2
Fore
SplineSet
400.692892937 -0.717663400255 m 0x78
 346.15090646 -0.717663400255 319.741474065 13.4379574361 307 49 c 1
 274.87890625 10.53125 235.147460938 -10 189 -10 c 0xb8
 91.1591796875 -10 32 46.42578125 32 139 c 0
 32 329.450842815 307 261.805441152 307 333 c 2
 307 343 l 2
 307 383 278 414 239 414 c 0
 200 414 171 393 171 333 c 1
 32 333 l 1
 32 353 l 2
 32 458 110 522 239 522 c 0
 368 522 446 458 446 353 c 2
 446 148 l 2
 446 132.626468206 453.912187509 128.753287742 462.183729339 128.753287742 c 0
 468.259863226 128.753287742 474.529909075 130.843303025 478 132 c 1
 478 10 l 1
 463.804454807 4.98980757898 433.571502775 -0.717663400255 400.692892937 -0.717663400255 c 0x78
171 149 m 0
 171 125.901367188 195.735351562 98 229 98 c 0
 273.735351562 98 307 139 307 179 c 2
 307 207.704101562 l 1
 275 198 171 206 171 149 c 0
EndSplineSet
EndChar

StartChar: a.ss02
Encoding: 1114113 -1 64
Width: 482
Flags: W
HStem: -10 108<195.309 291.423> 0 21G<313 452> 0 21G<313 452> 414 108<195.309 291.423> 492 20G<312 451.039>
VStem: 38 139<117.199 394.801> 313 139<0 27.9502 111.387 400.613 484.05 512>
LayerCount: 2
Fore
SplineSet
313 133.267578125 m 1x96
 313 378.732421875 l 1
 299.90234375 400.024414062 275.037109375 414 245 414 c 0
 206 414 177 383 177 343 c 2
 177 169 l 2
 177 129 206 98 245 98 c 0
 275.037109375 98 299.90234375 111.975585938 313 133.267578125 c 1x96
451 512 m 1x0e
 452 0 l 1
 313 0 l 1x4e
 313 27.9501953125 l 1
 286.39453125 3.3837890625 249.741210938 -10 205 -10 c 0
 100.927734375 -10 38 54 38 159 c 2
 38 353 l 2
 38 458 100.927734375 522 205 522 c 0x96
 249.741210938 522 286.39453125 508.616210938 313 484.049804688 c 1
 312 512 l 1
 451 512 l 1x0e
EndSplineSet
EndChar

StartChar: Q.ss03
Encoding: 1114114 -1 65
Width: 528
Flags: W
HStem: -10 108<189.656 270.995> 583 108<191.16 286.84>
VStem: 32 139<117.199 563.801> 307 139<118.053 563.801>
LayerCount: 2
Fore
SplineSet
272 0 m 1
 272 38 l 1
 516 98 l 1
 516 -40 l 5
 272 0 l 1
32 522 m 2
 32 627 110 691 239 691 c 0
 368 691 446 627 446 522 c 2
 446 189 l 2
 446 84 348 -10 219 -10 c 0
 90 -10 32 54 32 159 c 2
 32 522 l 2
171 169 m 2
 171 129 200 98 239 98 c 0
 278 98 307 129 307 169 c 2
 307 512 l 2
 307 552 278 583 239 583 c 0
 200 583 171 552 171 512 c 2
 171 169 l 2
EndSplineSet
EndChar

StartChar: R.ss04
Encoding: 1114115 -1 66
Width: 517
Flags: W
HStem: 0 21G<38 177 349.686 496> 0 21G<38 177 349.686 496> 294 108<177 249.48> 568 108<177 333.918>
VStem: 38 139<0 294 402 568> 356 139<422.676 548.801>
LayerCount: 2
Fore
SplineSet
177 568 m 1x3c
 177 402 l 1
 288 402 l 2
 327 402 356 433 356 473 c 2
 356 497 l 2
 356 537 327 568 288 568 c 2
 177 568 l 1x3c
288 676 m 2
 416.951476434 676 495 612 495 507 c 2
 495 463 l 2
 495 387.20659931 454.357651893 332.776484163 383.2281923 308.360411681 c 1
 496 0 l 1
 357 0 l 1
 249.48 294 l 1
 177 294 l 1
 177 0 l 1
 38 0 l 1xbc
 38 676 l 1
 288 676 l 2
EndSplineSet
EndChar

StartChar: g.ss05
Encoding: 1114116 -1 67
Width: 490
Flags: W
HStem: -217 108<197.16 292.84> 30 108<195.309 291.423> 414 108<195.309 291.423> 492 20G<313 452>
VStem: 38 139<-89.8005 -14 157.199 394.801> 313 139<-89.8005 67.9502 151.387 400.613 484.05 512>
LayerCount: 2
Fore
SplineSet
177 -38 m 6xdc
 177 -78 206 -109 245 -109 c 4
 284 -109 313 -78 313 -38 c 6
 313 67.9501953125 l 5
 286.39453125 43.3828125 249.741210938 30 205 30 c 0
 100.927734375 30 38 94 38 199 c 2
 38 353 l 2
 38 458 100.927536232 522 205 522 c 0xec
 249.741533701 522 286.394284431 508.616809762 313 484.049804688 c 1
 313 512 l 1
 452 512 l 1
 452 -48 l 6
 452 -153 374 -217 245 -217 c 4
 116 -217 38 -153 38 -48 c 6
 38 -14 l 5
 177 -14 l 5
 177 -38 l 6xdc
313 378.732421875 m 1
 299.902745172 400.024312154 275.037016294 414 245 414 c 0
 206 414 177 383 177 343 c 2
 177 209 l 2
 177 169 206 138 245 138 c 0
 275.037109375 138 299.90234375 151.975585938 313 173.267578125 c 1
 313 378.732421875 l 1
EndSplineSet
EndChar

StartChar: u.ss06
Encoding: 1114117 -1 68
Width: 458
Flags: W
HStem: -10 108<186.679 271.321> 492 20G<32 171 287 426>
VStem: 32 139<112.872 512> 287 139<112.872 512>
LayerCount: 2
Fore
SplineSet
171 169 m 2
 171 129 190 98 229 98 c 0
 268 98 287 129 287 169 c 2
 287 512 l 1
 426 512 l 1
 426 159 l 2
 426 54 358 -10 229 -10 c 0
 100 -10 32 54 32 159 c 2
 32 512 l 1
 171 512 l 1
 171 169 l 2
EndSplineSet
EndChar

StartChar: r.ss07
Encoding: 1114118 -1 69
Width: 363
Flags: W
HStem: 0 21G<38 177> 0 21G<38 177> 492 20G<38 177 299.4 343>
VStem: 38 139<0 369.229 445.853 512>
LayerCount: 2
Fore
SplineSet
177 0 m 1xb0
 38 0 l 1
 38 512 l 1
 177 512 l 1
 177 445.853211009 l 1
 343 522 l 1
 343 354 l 1
 177 369.229357798 l 1
 177 0 l 1xb0
EndSplineSet
EndChar

StartChar: y.ss08
Encoding: 1114119 -1 70
Width: 490
Flags: W
HStem: -217 108<203.16 296.857> 40 108<130.5 260.577> 492 20G<38 177 313 452>
VStem: 38 139<-80.9516 -14 167.199 512> 313 138<-89.8005 114.704 166.169 512>
LayerCount: 2
Fore
SplineSet
177 219 m 2
 177 179 206 148 245 148 c 0
 284 148 313 179 313 219 c 2
 313 512 l 1
 452 512 l 1
 451 -48 l 2
 451 -153 380 -217 251 -217 c 0
 122 -217 44 -153 44 -48 c 2
 44 -14 l 1
 183 -14 l 1
 183 -38 l 2
 183 -78 212 -109 251 -109 c 0
 290 -109 312 -78 312 -38 c 2
 312.596679688 114.704101562 l 1
 284.70703125 75.9599609375 245.279296875 40 195 40 c 0
 66 40 38 104 38 209 c 2
 38 512 l 1
 177 512 l 1
 177 219 l 2
EndSplineSet
EndChar

StartChar: O.ss09
Encoding: 1114120 -1 71
Width: 478
Flags: W
HStem: 0 129<32 446> 173 108<191.16 286.84> 583 108<191.16 286.84>
VStem: 32 139<300.199 563.801> 307 139<300.199 563.801>
LayerCount: 2
Fore
SplineSet
32 129 m 1
 446 129 l 1
 446 0 l 1
 32 0 l 1
 32 129 l 1
32 522 m 2
 32 627 110 691 239 691 c 0
 368 691 446 627 446 522 c 2
 446 342 l 6
 446 237 368 173 239 173 c 4
 110 173 32 237 32 342 c 6
 32 522 l 2
171 352 m 6
 171 312 200 281 239 281 c 4
 278 281 307 312 307 352 c 6
 307 512 l 2
 307 552 278 583 239 583 c 0
 200 583 171 552 171 512 c 2
 171 352 l 6
EndSplineSet
EndChar

StartChar: s.hist
Encoding: 1114121 -1 72
Width: 336
Flags: W
HStem: 0 21G<88 227.001> 0 21G<88 227.001> 386 126<10 88> 586 131<236.859 317>
VStem: 10 217.037<386 512> 88 139<0 386 512 578.033>
LayerCount: 2
Fore
SplineSet
227 0 m 1xb4
 88 0 l 1
 88 386 l 1xb4
 10 386 l 1
 10 512 l 1xb8
 88 512 l 1
 88 578 l 2xb4
 88 676.786132812 126.587890625 717 248 717 c 2
 317 717 l 1
 317 586 l 1
 287 586 l 2
 239.638671875 586 228.040039062 567.73828125 227.037109375 512 c 2xb8
 227 0 l 1xb4
EndSplineSet
EndChar

StartChar: question
Encoding: 63 63 73
Width: 478
Flags: W
HStem: 0 108<158 297> 512 21G<32 171> 583 108<191.16 286.84>
VStem: 158 139<0 108 158 232.505> 307 139<394.398 563.801>
LayerCount: 2
Fore
SplineSet
297 0 m 1
 158 0 l 1
 158 108 l 1
 297 108 l 1
 297 0 l 1
307 450 m 6
 307 512 l 6
 307 552 278 583 239 583 c 4
 200 583 171 552 171 512 c 5
 32 512 l 5
 32 532 l 6
 32 637 110 691 239 691 c 4
 368 691 446 627 446 522 c 6
 446 450 l 6
 446 300 296 292 296 158 c 5
 157 158 l 5
 157 342 307 352 307 450 c 6
EndSplineSet
EndChar

StartChar: two
Encoding: 50 50 74
Width: 478
Flags: W
HStem: 1 116<195.962 446> 512 21G<32 171> 583 108<191.16 286.84>
VStem: 307 139<376.34 563.801>
LayerCount: 2
Fore
SplineSet
307 440 m 2
 307 512 l 2
 307 552 278 583 239 583 c 0
 200 583 171 552 171 512 c 1
 32 512 l 1
 32 532 l 2
 32 637 110 691 239 691 c 0
 368 691 446 627 446 522 c 2
 446 440 l 2
 446 269.02556168 263.712673386 253.823929739 195.961575212 117 c 1
 446 117 l 1
 446 1 l 1
 171 1 l 1
 32 1 l 1
 32 305 307 282 307 440 c 2
EndSplineSet
EndChar

StartChar: three
Encoding: 51 51 75
Width: 474
Flags: W
HStem: -10 118<187.16 282.696> 284 108<173 284.747> 568 118<187.16 282.84>
VStem: 28 139<126.169 179 497 549.831> 303 139<126.662 265.831 410.908 549.338>
CounterMasks: 1 e0
LayerCount: 2
Fore
SplineSet
235 392 m 2
 274 392 303 423 303 463 c 2
 303 497 l 2
 303 537 274 568 235 568 c 0
 196 568 167 537 167 497 c 1
 28 497 l 1
 28 517 l 2
 28 622 106 686 235 686 c 0
 364 686 442 612 442 507 c 2
 442 453 l 2
 442 402 411 363 354 342 c 1
 411 319 442 278 442 223 c 2
 442 169 l 2
 442 64 363 -10 235 -10 c 0
 106 -10 28 54 28 159 c 2
 28 179 l 1
 167 179 l 1
 167 139 196 108 235 108 c 0
 274 108 303 139 303 179 c 2
 303 213 l 2
 303 253 274 284 235 284 c 2
 173 284 l 5
 173 392 l 5
 235 392 l 2
EndSplineSet
EndChar

StartChar: eight
Encoding: 56 56 76
Width: 478
Flags: W
HStem: 0 108<191.16 286.757> 284 108<189.253 288.747> 568 108<191.243 286.84>
VStem: 32 139<127.199 265.104 412.042 548.801> 307 139<127.199 263.958 410.896 548.801>
CounterMasks: 1 e0
LayerCount: 2
Fore
SplineSet
239 108 m 0
 278 108 307 139 307 179 c 2
 307 213 l 2
 307 253 278 284 239 284 c 0
 200 284 171 253 171 213 c 2
 171 179 l 2
 171 139 200 108 239 108 c 0
239 676 m 0
 368 676 446 612 446 507 c 2
 446 453 l 2
 446 401.799804688 414.168945312 363.37109375 357.544921875 342.291015625 c 1
 414.168945312 319.577148438 446 278.168945312 446 223 c 2
 446 169 l 2
 446 64 367.422851562 0 239 0 c 0
 110 0 32 64 32 169 c 2
 32 223 l 2
 32 274.200195312 63.8310546875 312.62890625 120.455078125 333.708984375 c 1
 63.8310546875 356.422851562 32 397.831054688 32 453 c 2
 32 507 l 2
 32 612 110.577148438 676 239 676 c 0
239 568 m 0
 200 568 171 537 171 497 c 2
 171 463 l 2
 171 423 200 392 239 392 c 0
 278 392 307 423 307 463 c 2
 307 497 l 2
 307 537 278 568 239 568 c 0
EndSplineSet
EndChar

StartChar: seven
Encoding: 55 55 77
Width: 416
Flags: W
HStem: 0 21G<87 232.501> 0 21G<87 232.501> 540 136<38 257>
VStem: 87 139<0 139>
LayerCount: 2
Fore
SplineSet
226 0 m 1xb0
 87 0 l 1
 257 540 l 1
 38 540 l 1
 38 676 l 1
 396 676 l 1
 396 523 l 1
 226 0 l 1xb0
EndSplineSet
EndChar

StartChar: six
Encoding: 54 54 78
Width: 478
Flags: W
HStem: -10 108<191.16 286.84> 334 108<194.409 288.849> 578 108<191.16 286.84>
VStem: 32 139<117.199 315.831 387.906 558.801> 307 139<117.199 314.801 517 558.801>
LayerCount: 2
Fore
SplineSet
171 169 m 6
 171 129 200 98 239 98 c 4
 278 98 307 129 307 169 c 6
 307 263 l 6
 307 303 278 334 239 334 c 4
 200 334 171 303 171 263 c 6
 171 169 l 6
307 507 m 5
 307 547 278 578 239 578 c 4
 200 578 171 547 171 507 c 6
 171 387.905872798 l 5
 190.462112896 431.753251776 225.359377382 442 269 442 c 4
 378 442 446 378 446 273 c 6
 446 159 l 6
 446 54 368 -10 239 -10 c 4
 110 -10 32 54 32 159 c 6
 32 517 l 6
 32 622 110 686 239 686 c 4
 368 686 446 622 446 517 c 5
 307 507 l 5
EndSplineSet
EndChar

StartChar: nine
Encoding: 57 57 79
Width: 478
Flags: W
HStem: -10 108<191.16 286.84> 234 108<189.151 283.591> 578 108<191.16 286.84>
VStem: 32 139<117.199 159 361.199 558.801> 307 139<117.199 288.094 360.169 558.801>
LayerCount: 2
Fore
SplineSet
307 507 m 2
 307 547 278 578 239 578 c 0
 200 578 171 547 171 507 c 2
 171 413 l 2
 171 373 200 342 239 342 c 0
 278 342 307 373 307 413 c 2
 307 507 l 2
171 169 m 1
 171 129 200 98 239 98 c 0
 278 98 307 129 307 169 c 2
 307 288.09375 l 1
 287.538085938 244.247070312 252.640625 234 209 234 c 0
 100 234 32 298 32 403 c 2
 32 517 l 2
 32 622 110 686 239 686 c 0
 368 686 446 622 446 517 c 2
 446 159 l 2
 446 54 368 -10 239 -10 c 0
 110 -10 32 54 32 159 c 1
 171 169 l 1
EndSplineSet
EndChar

StartChar: asciicircum
Encoding: 94 94 80
Width: 509
Flags: W
HStem: 512 21G<15 180.186 328.814 494> 623.828 74.1719<165 344>
LayerCount: 2
Fore
SplineSet
494 512 m 1
 345 512 l 1
 254.5 623.828125 l 1
 164 512 l 1
 15 512 l 1
 165 698 l 1
 344 698 l 1
 494 512 l 1
EndSplineSet
EndChar

StartChar: four
Encoding: 52 52 81
Width: 512
Flags: W
HStem: 0 21G<256 395> 0 21G<256 395> 166 126<161 256 395 492> 656 20G<176.176 395>
VStem: 256 139<0 166 292 516>
LayerCount: 2
Fore
SplineSet
256 516 m 1x38
 161 292 l 1
 256 292 l 1
 256 516 l 1x38
395 676 m 1
 395 292 l 1
 492 292 l 1
 492 166 l 1
 395 166 l 1
 395 0 l 1
 256 0 l 1xb8
 256 166 l 1
 20 166 l 1
 20 302 l 1
 185 676 l 1
 395 676 l 1
EndSplineSet
EndChar

StartChar: five
Encoding: 53 53 82
Width: 478
Flags: W
HStem: -10 108<191.16 286.84> 334 108<219.792 344.804> 545 131<171 448>
VStem: 32 139<116.381 169 263 315.831 350.837 545> 307 139<117.199 314.801>
LayerCount: 2
Fore
SplineSet
446 159 m 2
 446 54 368 -10 239 -10 c 0
 110 -10 32 44 32 149 c 2
 32 169 l 1
 171 169 l 1
 171 129 200 98 239 98 c 0
 278 98 307 129 307 169 c 2
 307 263 l 2
 307 303 278 334 239 334 c 0
 200 334 171 303 171 263 c 1
 32 263 l 1
 32 676 l 1
 448 676 l 1
 448 545 l 1
 171 545 l 1
 171 350.83733353 l 1
 189.266566692 411.181291915 234.501403162 442 299 442 c 0
 390.608695652 442 446 378 446 273 c 2
 446 159 l 2
EndSplineSet
EndChar

StartChar: dollar
Encoding: 36 36 83
Width: 478
Flags: W
VStem: 32 139<223.179 279 438.368 505.032> 222 37<-4 90.3818 202.638 283.533 422.871 508.205 621.641 707> 307 139<207.242 270.094 433 488.534>
LayerCount: 2
Fore
SplineSet
222 707 m 1
 259 707 l 1
 259 621.46875 l 1
 376.018554688 615.127929688 446 552.45703125 446 453 c 2
 446 433 l 1
 307 433 l 1
 307 467.65234375 287.819335938 496.383789062 259 508.205078125 c 1
 259 411.146484375 l 1
 339.454101562 388.149414062 446 364.7109375 446 249 c 0
 446 155.427734375 376.018554688 96.46484375 259 90.5 c 1
 259 -4 l 1
 222 -4 l 1
 222 90.3818359375 l 1
 103.178710938 95.806640625 32 158.696289062 32 259 c 2
 32 279 l 1
 171 279 l 1
 171 243.159179688 191.51953125 213.651367188 222 202.637695312 c 1
 222 296.21875 l 1
 217.094726562 297.76953125 212.083984375 299.334960938 207 300.930664062 c 0
 128.359375 325.611328125 32 357.743164062 32 463 c 0
 32 557.369140625 103.178710938 616.537109375 222 621.640625 c 1
 222 707 l 1
222 513.729492188 m 1
 192.32421875 511.413085938 171 494.446289062 171 473 c 0
 171 448.13671875 191.818359375 434.071289062 222 422.87109375 c 1
 222 513.729492188 l 1
259 198.556640625 m 1
 287.102539062 201.747070312 307 218.283203125 307 239 c 0
 307 259.4921875 287.551757812 272.3515625 259 283.533203125 c 1
 259 198.556640625 l 1
EndSplineSet
EndChar

StartChar: slash
Encoding: 47 47 84
Width: 425
Flags: W
HStem: 0 21G<38 183.213> 0 21G<38 183.213> 656 20G<241.787 387>
VStem: 38 139<0 139> 248 139<537 676>
LayerCount: 2
Fore
SplineSet
248 676 m 1xb8
 387 676 l 1
 177 0 l 1
 38 0 l 1
 248 676 l 1xb8
EndSplineSet
EndChar

StartChar: backslash
Encoding: 92 92 85
Width: 425
Flags: W
HStem: 0 21G<241.787 387> 0 21G<241.787 387> 656 20G<38 183.213>
VStem: 38 139<537 676> 248 139<0 139>
LayerCount: 2
Fore
SplineSet
248 0 m 1xb8
 38 676 l 1
 177 676 l 1
 387 0 l 1
 248 0 l 1xb8
EndSplineSet
EndChar

StartChar: percent
Encoding: 37 37 86
Width: 1009
Flags: W
HStem: 0 108<758.672 825.328> 264 108<758.672 825.328> 304 108<183.672 250.328> 568 108<183.672 250.328>
VStem: 30 139<426.872 553.128> 265 139<426.872 553.128> 330 139<0 139> 540 139<537 676> 605 139<122.872 249.128> 840 139<122.872 249.128>
LayerCount: 2
Fore
SplineSet
605 203 m 2xd8c0
 605 308 675.463867188 372 792 372 c 0
 908.536132812 372 979 308 979 203 c 2
 979 169 l 2
 979 64 908.536132812 0 792 0 c 0
 675.463867188 0 605 64 605 169 c 2
 605 203 l 2xd8c0
744 179 m 2
 744 139 764.470703125 108 792 108 c 0
 819.529296875 108 840 139 840 179 c 2
 840 193 l 2
 840 233 819.529296875 264 792 264 c 0
 764.470703125 264 744 233 744 193 c 2
 744 179 l 2
30 507 m 6
 30 612 100.463867188 676 217 676 c 4
 333.536132812 676 404 612 404 507 c 6
 404 473 l 6
 404 368 333.536132812 304 217 304 c 4xbc40
 100.463867188 304 30 368 30 473 c 6
 30 507 l 6
169 483 m 6
 169 443 189.470703125 412 217 412 c 4
 244.529296875 412 265 443 265 483 c 6
 265 497 l 6
 265 537 244.529296875 568 217 568 c 4
 189.470703125 568 169 537 169 497 c 6
 169 483 l 6
540 676 m 1x9b40
 679 676 l 1
 469 0 l 1
 330 0 l 1
 540 676 l 1x9b40
EndSplineSet
EndChar

StartChar: ampersand
Encoding: 38 38 87
Width: 537
Flags: W
HStem: -10 118<136.08 270.707> 0 21G<303 442> 0 21G<303 442> 284 108<185.253 303 442 509> 568 118<187.304 282.84>
VStem: 28 139<126.662 265.092 410.169 549.338> 303 139<0 38.2516 121.387 284 392 426 497 549.831>
LayerCount: 2
Fore
SplineSet
303 426 m 1x9e
 442 466 l 1
 442 392 l 1
 509 392 l 5
 509 284 l 5
 442 284 l 1
 442 0 l 1
 303 0 l 1x5e
 303 38.2516173573 l 1
 275.923541613 7.14709033918 235.643562486 -10 185 -10 c 0
 87.1594202899 -10 28 64 28 169 c 2
 28 223 l 2
 28 274 59 313 116 334 c 1
 59 357 28 398 28 453 c 2
 28 507 l 2
 28 612 107 686 235 686 c 0
 364 686 442 622 442 517 c 2
 442 497 l 1
 303 497 l 1
 303 537 274 568 235 568 c 0
 196 568 167 537 167 497 c 2
 167 463 l 2
 167 423 196 392 235 392 c 2
 303 392 l 1
 303 426 l 1x9e
235 284 m 2
 196 284 167 253 167 213 c 2
 167 179 l 2
 167 139 196 108 235 108 c 0x9e
 265.037016294 108 289.902745172 121.975735736 303 143.267698976 c 1
 303 284 l 1
 235 284 l 2
EndSplineSet
EndChar

StartChar: numbersign
Encoding: 35 35 88
Width: 656
Flags: W
HStem: 0 21G<38 183.213 268 413.213> 0 21G<38 183.213 268 413.213> 160 139<20 87.7041 269.885 317.704 499.885 636> 390 139<20 159.154 341.334 389.154 571.334 636> 656 20G<241.787 387 471.787 617>
VStem: 38 139<0 139> 248 139<537 676> 268 139<0 139> 478 139<537 676>
LayerCount: 2
Fore
SplineSet
389.153846154 390 m 1x3c80
 298.153846154 390 l 1
 269.884615385 299 l 1
 360.884615385 299 l 1
 389.153846154 390 l 1x3c80
478 676 m 1
 617 676 l 1
 571.334319527 529 l 1
 636 529 l 1
 636 390 l 1
 528.153846154 390 l 1
 499.884615385 299 l 1
 636 299 l 1
 636 160 l 1
 456.704142012 160 l 1
 407 0 l 1
 268 0 l 1xbd80
 317.704142012 160 l 1
 226.704142012 160 l 1
 177 0 l 1
 38 0 l 1
 87.7041420118 160 l 1
 20 160 l 1
 20 299 l 1
 130.884615385 299 l 1
 159.153846154 390 l 1
 20 390 l 1
 20 529 l 1
 202.334319527 529 l 1
 248 676 l 1
 387 676 l 1xbe80
 341.334319527 529 l 1
 432.334319527 529 l 1
 478 676 l 1
EndSplineSet
EndChar

StartChar: underscore
Encoding: 95 95 89
Width: 524
Flags: W
HStem: -40 99<20 504>
LayerCount: 2
Fore
SplineSet
20 59 m 5
 504 59 l 5
 504 -40 l 5
 20 -40 l 5
 20 59 l 5
EndSplineSet
EndChar

StartChar: plus
Encoding: 43 43 90
Width: 384
Flags: W
HStem: 270 119<20 132.5 251.5 364>
VStem: 132.5 119<157.5 270 389 501.5>
LayerCount: 2
Fore
SplineSet
132.5 389 m 5
 132.5 501.5 l 5
 251.5 501.5 l 5
 251.5 389 l 5
 364 389 l 5
 364 270 l 5
 251.5 270 l 5
 251.5 157.5 l 5
 132.5 157.5 l 5
 132.5 270 l 5
 20 270 l 5
 20 389 l 5
 132.5 389 l 5
EndSplineSet
EndChar

StartChar: multiply
Encoding: 215 215 91
Width: 384
Flags: W
HStem: 165.805 327.391
VStem: 28.3047 327.391
LayerCount: 2
Fore
SplineSet
107.854492188 329.5 m 5
 28.3046875 409.049804688 l 5
 112.450195312 493.1953125 l 5
 192 413.645507812 l 5
 271.549804688 493.1953125 l 5
 355.6953125 409.049804688 l 5
 276.145507812 329.5 l 5
 355.6953125 249.950195312 l 5
 271.549804688 165.8046875 l 5
 192 245.354492188 l 5
 112.450195312 165.8046875 l 5
 28.3046875 249.950195312 l 5
 107.854492188 329.5 l 5
EndSplineSet
EndChar

StartChar: divide
Encoding: 247 247 92
Width: 400
Flags: W
HStem: 100 112<130 269> 250 119<28 372> 400 112<130 269>
VStem: 130 139<100 212 400 512>
LayerCount: 2
Fore
SplineSet
28 369 m 1
 372 369 l 1
 372 250 l 1
 28 250 l 1
 28 369 l 1
130 512 m 1
 269 512 l 1
 269 400 l 1
 130 400 l 1
 130 512 l 1
130 212 m 1
 269 212 l 1
 269 100 l 1
 130 100 l 1
 130 212 l 1
EndSplineSet
EndChar

StartChar: bar
Encoding: 124 124 93
Width: 215
Flags: W
VStem: 38 139<-185 765>
LayerCount: 2
Fore
SplineSet
38 765 m 1
 177 765 l 1
 177 -185 l 1
 38 -185 l 1
 38 765 l 1
EndSplineSet
EndChar

StartChar: parenleft
Encoding: 40 40 94
Width: 284
Flags: W
HStem: -10 108<198.176 269> 583 108<198.176 269>
VStem: 32 139<126.048 554.952>
LayerCount: 2
Fore
SplineSet
269 -10 m 5
 121.304347826 -10 32 54 32 159 c 6
 32 522 l 6
 32 627 121.304347826 691 269 691 c 5
 269 583 l 5
 212.794117647 583 171 552 171 512 c 6
 171 169 l 6
 171 129 212.794117647 98 269 98 c 5
 269 -10 l 5
EndSplineSet
EndChar

StartChar: parenright
Encoding: 41 41 95
Width: 284
Flags: W
HStem: -10 108<15 85.8238> 583 108<15 85.8238>
VStem: 113 139<126.048 554.952>
LayerCount: 2
Fore
SplineSet
15 691 m 5
 162.695652174 691 252 627 252 522 c 6
 252 159 l 6
 252 54 162.695652174 -10 15 -10 c 5
 15 98 l 5
 71.2058823529 98 113 129 113 169 c 6
 113 512 l 6
 113 552 71.2058823529 583 15 583 c 5
 15 691 l 5
EndSplineSet
EndChar

StartChar: bracketleft
Encoding: 91 91 96
Width: 291
Flags: W
VStem: 38 238
LayerCount: 2
Fore
SplineSet
177 540 m 1
 276 540 l 1
 276 676 l 1
 38 676 l 1
 38 0 l 1
 276 0 l 1
 276 136 l 1
 177 136 l 1
 177 540 l 1
EndSplineSet
EndChar

StartChar: braceleft
Encoding: 123 123 97
Width: 284
Flags: W
HStem: -10 108<215.2 269> 280 106<0 51.9778> 583 108<215.2 269>
VStem: 0 191<280 386> 52 139<121.592 260 406 559.408>
LayerCount: 2
Fore
SplineSet
269 -10 m 1xe8
 133.768115942 -10 52 54 52 159 c 2
 52 260 l 1xe8
 52 260 21.5 280 0 280 c 1
 0 386 l 1xf0
 21.5 386 52 406 52 406 c 1
 52 522 l 2
 52 627 133.768115942 691 269 691 c 1
 269 583 l 1
 224.264705882 583 191 552 191 512 c 2
 191 169 l 2
 191 129 224.264705882 98 269 98 c 1
 269 -10 l 1xe8
EndSplineSet
EndChar

StartChar: braceright
Encoding: 125 125 98
Width: 284
Flags: W
HStem: -10 108<15 68.8004> 295 106<232.022 284> 583 108<15 68.8004>
VStem: 93 191<295 401> 93 139<121.592 275 421 559.408>
LayerCount: 2
Fore
SplineSet
15 691 m 1xe8
 150.231884058 691 232 627 232 522 c 2
 232 421 l 1xe8
 232 421 262.5 401 284 401 c 1
 284 295 l 1xf0
 262.5 295 232 275 232 275 c 1
 232 159 l 2
 232 54 150.231884058 -10 15 -10 c 1
 15 98 l 1
 59.7352941176 98 93 129 93 169 c 2
 93 512 l 2
 93 552 59.7352941176 583 15 583 c 1
 15 691 l 1xe8
EndSplineSet
EndChar

StartChar: bracketright
Encoding: 93 93 99
Width: 291
Flags: W
VStem: 15 238
LayerCount: 2
Fore
SplineSet
114 136 m 5
 15 136 l 5
 15 0 l 5
 253 0 l 5
 253 676 l 5
 15 676 l 5
 15 540 l 5
 114 540 l 5
 114 136 l 5
EndSplineSet
EndChar

StartChar: equal
Encoding: 61 61 100
Width: 384
Flags: W
HStem: 140 119<20 364> 340 119<20 364>
VStem: 20 344<140 259 340 459>
LayerCount: 2
Fore
SplineSet
20 259 m 5
 364 259 l 5
 364 140 l 5
 20 140 l 5
 20 259 l 5
20 459 m 5
 364 459 l 5
 364 340 l 5
 20 340 l 5
 20 459 l 5
EndSplineSet
EndChar

StartChar: asterisk
Encoding: 42 42 101
Width: 384
Flags: W
HStem: 493.639 111.723<136.139 247.861>
VStem: 136.139 111.723<493.639 605.361>
LayerCount: 2
Fore
SplineSet
136.138671875 549.5 m 1
 28.3046875 629.049804688 l 1
 112.450195312 713.1953125 l 1
 192 605.361328125 l 1
 271.549804688 713.1953125 l 1
 355.6953125 629.049804688 l 1
 247.861328125 549.5 l 1
 355.6953125 469.950195312 l 1
 271.549804688 385.8046875 l 1
 192 493.638671875 l 1
 112.450195312 385.8046875 l 1
 28.3046875 469.950195312 l 1
 136.138671875 549.5 l 1
EndSplineSet
EndChar

StartChar: less
Encoding: 60 60 102
Width: 552
Flags: W
HStem: 16.5 149<383 532> 346.5 149<383 532>
VStem: 20 94.1719<136.5 375.5>
LayerCount: 2
Fore
SplineSet
532 495.5 m 5
 532 346.5 l 5
 114.171875 256 l 5
 532 165.5 l 5
 532 16.5 l 5
 20 136.5 l 5
 20 375.5 l 5
 532 495.5 l 5
EndSplineSet
EndChar

StartChar: greater
Encoding: 62 62 103
Width: 552
Flags: W
HStem: 16.5 149<20 169> 346.5 149<20 169>
VStem: 437.828 94.1719<136.5 375.5>
LayerCount: 2
Fore
SplineSet
20 16.5 m 5
 20 165.5 l 5
 437.828125 256 l 5
 20 346.5 l 5
 20 495.5 l 5
 532 375.5 l 5
 532 136.5 l 5
 20 16.5 l 5
EndSplineSet
EndChar

StartChar: at
Encoding: 64 64 104
Width: 838
Flags: W
HStem: -10 108<300.902 537.098> 150 108<322.312 427.4> 424 108<322.312 427.4> 502 20G<443 582> 583 108<300.902 537.098>
VStem: 32 139<207.243 481.543> 228 139<264.867 417.133> 443 139<160 187.95 262.684 419.316 494.05 522> 667 139<207.243 481.543>
LayerCount: 2
Fore
SplineSet
32 422 m 2xcf80
 32 589.130177515 177.826086957 691 419 691 c 0
 660.173913043 691 806 589.130177515 806 422 c 2
 806 269 l 2
 806 95.6568047337 660.173913043 -10 419 -10 c 0
 177.826086957 -10 32 95.6568047337 32 269 c 2
 32 422 l 2xcf80
171 279 m 2
 171 177.028169014 276.764705882 98 419 98 c 0
 561.235294118 98 667 177.028169014 667 279 c 2
 667 412 l 2
 667 508.338028169 561.235294118 583 419 583 c 0
 276.764705882 583 171 508.338028169 171 412 c 2
 171 279 l 2
443 293.267578125 m 1
 443 388.732421875 l 1
 435.680721507 410.024414062 421.785443474 424 405 424 c 0xef80
 383.205882353 424 367 393 367 353 c 2
 367 329 l 2
 367 289 383.205882353 258 405 258 c 0
 421.785443474 258 435.680721507 271.975585938 443 293.267578125 c 1
582 522 m 1xdf80
 582 160 l 1
 443 160 l 1
 443 187.950195312 l 1
 423.784939236 163.383789062 397.313096789 150 365 150 c 0
 279.623350954 150 228 214 228 319 c 2
 228 363 l 2
 228 468 279.623350954 532 365 532 c 0xef80
 397.313096788 532 423.784939236 518.616210938 443 494.049804688 c 1
 443 522 l 1
 582 522 l 1xdf80
EndSplineSet
EndChar

StartChar: grave
Encoding: 96 96 105
Width: 249
Flags: W
HStem: 474 218
VStem: 20 209
LayerCount: 2
Fore
SplineSet
20 692 m 5
 139 692 l 5
 229 474 l 1
 160 474 l 1
 20 692 l 5
EndSplineSet
EndChar

StartChar: asciitilde
Encoding: 126 126 106
Width: 750
Flags: W
HStem: 130 119<169.56 237 477.941 589.097> 345 119<160.903 278.05 513 580.44>
VStem: 28 128<263.018 338.21> 594 128<255.79 330.982>
LayerCount: 2
Fore
SplineSet
28 297 m 0
 28 168 112 130 217 130 c 2
 237 130 l 1
 237 249 l 1
 191.366210938 249 156 262.264648438 156 307 c 0
 156 340.264648438 182.633789062 345 217 345 c 0
 366.11328125 345 279.696289062 130 523 130 c 0
 634.212890625 130 722 168 722 297 c 0
 722 426 638 464 533 464 c 2
 513 464 l 1
 513 345 l 1
 558.633789062 345 594 331.735351562 594 287 c 0
 594 253.735351562 567.366210938 249 533 249 c 0
 398.61328125 249 459.432617188 464 227 464 c 0
 115.787109375 464 28 426 28 297 c 0
EndSplineSet
EndChar

StartChar: exclamdown
Encoding: 161 161 107
Width: 215
Flags: W
HStem: 367 108<38 177>
VStem: 38 139<-200 315 367 475>
LayerCount: 2
Fore
SplineSet
38 315 m 1
 177 315 l 1
 177 -200 l 1
 38 -200 l 1
 38 315 l 1
38 475 m 5
 177 475 l 5
 177 367 l 5
 38 367 l 5
 38 475 l 5
EndSplineSet
EndChar

StartChar: questiondown
Encoding: 191 191 108
Width: 478
Flags: W
HStem: -200 108<191.16 286.84> 383 108<181 320>
VStem: 32 139<-72.8005 96.6022> 181 139<258.495 333 383 491>
LayerCount: 2
Fore
SplineSet
181 491 m 1
 320 491 l 1
 320 383 l 1
 181 383 l 1
 181 491 l 1
171 41 m 6
 171 -21 l 6
 171 -61 200 -92 239 -92 c 4
 278 -92 307 -61 307 -21 c 5
 446 -21 l 5
 446 -41 l 6
 446 -146 368 -200 239 -200 c 4
 110 -200 32 -136 32 -31 c 6
 32 41 l 6
 32 191 182 199 182 333 c 5
 321 333 l 5
 321 149 171 139 171 41 c 6
EndSplineSet
EndChar

StartChar: cent
Encoding: 162 162 109
Width: 478
Flags: W
VStem: 32 139<218.96 493.04> 222 37<-4 90.3818 200.892 511.108 621.618 707> 307 139<218.011 269 443 493.989>
LayerCount: 2
Fore
SplineSet
222 707 m 1
 259 707 l 1
 259 621.548828125 l 1
 376.018554688 616.15625 446 562.45703125 446 463 c 2
 446 443 l 1
 307 443 l 1
 307 475.791015625 287.510742188 502.534179688 259 511.108398438 c 1
 259 200.891601562 l 1
 287.510742188 209.465820312 307 236.208984375 307 269 c 1
 446 269 l 1
 446 249 l 2
 446 149.54296875 376.018554688 95.84375 259 90.451171875 c 1
 259 -4 l 1
 222 -4 l 1
 222 90.3818359375 l 1
 103.178710938 95.806640625 32 158.696289062 32 259 c 2
 32 453 l 2
 32 553.303710938 103.178710938 616.193359375 222 621.618164062 c 1
 222 707 l 1
222 511.934570312 m 1
 191.865234375 504.3828125 171 476.928710938 171 443 c 2
 171 269 l 2
 171 235.071289062 191.865234375 207.6171875 222 200.065429688 c 1
 222 511.934570312 l 1
EndSplineSet
EndChar

StartChar: sterling
Encoding: 163 163 110
Width: 528
Flags: W
HStem: 0 128<28 130 269 500> 316 126<52 130 269 401> 586 131<278.859 449>
VStem: 130 139<128 316 442 574.054>
LayerCount: 2
Fore
SplineSet
130 128 m 1
 130 316 l 1
 52 316 l 1
 52 442 l 1
 130 442 l 1
 130 538 l 2
 130 636.786132812 168.587890625 717 290 717 c 2
 449 717 l 1
 449 586 l 1
 329 586 l 2
 281.638671875 586 270.040039062 567.73828125 269.037109375 512 c 2
 269 442 l 1
 401 442 l 1
 401 316 l 1
 269 316 l 1
 269 128 l 1
 500 128 l 1
 500 0 l 1
 28 0 l 1
 28 128 l 1
 130 128 l 1
EndSplineSet
EndChar

StartChar: yen
Encoding: 165 165 111
Width: 509
Flags: W
HStem: 0 21G<197 340.675> 0 21G<197 340.675> 74 109<378.772 453> 214 109<411.494 485> 656 20G<15 169.32 340.739 494>
VStem: 15 149<527 676> 345 149<527 676>
LayerCount: 2
Fore
SplineSet
15 676 m 1xbe
 164 676 l 1
 264.5 298.171875 l 1
 345 676 l 1
 494 676 l 1
 411.49408284 323 l 1
 514 323 l 1
 485 214 l 1
 386.017751479 214 l 1
 378.772189349 183 l 1
 481 183 l 1
 453 74 l 1
 353.295857988 74 l 1
 336 0 l 1
 197 0 l 1
 245 204 l 1
 145 204 l 1
 15 676 l 1xbe
EndSplineSet
EndChar

StartChar: brokenbar
Encoding: 166 166 112
Width: 215
Flags: W
VStem: 38 139<-185 200 418 765>
LayerCount: 2
Fore
SplineSet
38 765 m 1
 177 765 l 1
 177 418 l 1
 38 418 l 1
 38 765 l 1
38 200 m 1
 177 200 l 1
 177 -185 l 1
 38 -185 l 1
 38 200 l 1
EndSplineSet
EndChar

StartChar: section
Encoding: 167 167 113
Width: 478
Flags: W
HStem: -49.877 108<197.217 297.939> 513 21G<307 446> 594 108<180.061 280.783>
VStem: 32 139<86.1715 139.123 301.995 364.565 517.204 583.861> 307 139<68.2616 134.919 287.127 350.367 513 565.952>
LayerCount: 2
Fore
SplineSet
239 702 m 4
 368 702 446 638 446 533 c 6
 446 513 l 5
 307 513 l 5
 307 558.633789062 273.735351562 594 229 594 c 4
 195.735351562 594 171 576.098632812 171 553 c 4
 171 520.292795981 207.026421301 506.270312277 253 492.876953125 c 4
 334.044076995 469.266786752 446 447.611676138 446 329 c 4
 446 286.695178203 415.540847138 254.713268628 361.2109375 236.672851562 c 5
 408.508186177 211.981752967 446 174.777841509 446 109.123046875 c 4
 446 10.3359375 368 -49.876953125 239 -49.876953125 c 4
 110 -49.876953125 32 14.123046875 32 119.123046875 c 6
 32 139.123046875 l 5
 171 139.123046875 l 5
 171 93.4892578125 204.264648438 58.123046875 249 58.123046875 c 4
 282.264648438 58.123046875 307 76.0244140625 307 99.123046875 c 4
 307 131.830078125 270.973632812 145.852539062 225 159.245117188 c 4
 143.956054688 182.85546875 32 204.510742188 32 323.123046875 c 4
 32 365.427152376 62.45915032 397.408847082 116.7890625 415.44921875 c 5
 69.4918740483 440.140461322 32 477.344593593 32 543 c 4
 32 641.787109375 110 702 239 702 c 4
249.4140625 278.000976562 m 5
 282.46973265 278.149004546 306.999998718 295.997435825 307 319 c 4
 307 346.161964723 272.832678369 359.913913279 228.584960938 374.122070312 c 5
 195.529780265 373.973682197 170.999998749 356.125375174 171 333.123046875 c 4
 171 305.961111048 205.166937011 292.209079253 249.4140625 278.000976562 c 5
EndSplineSet
EndChar

StartChar: degree
Encoding: 176 176 114
Width: 434
Flags: W
HStem: 304 108<183.672 250.328> 568 108<183.672 250.328>
VStem: 30 139<426.872 553.128> 265 139<426.872 553.128>
LayerCount: 2
Fore
SplineSet
30 507 m 6
 30 612 100.463867188 676 217 676 c 4
 333.536132812 676 404 612 404 507 c 6
 404 473 l 6
 404 368 333.536132812 304 217 304 c 4
 100.463867188 304 30 368 30 473 c 6
 30 507 l 6
169 483 m 6
 169 443 189.470703125 412 217 412 c 4
 244.529296875 412 265 443 265 483 c 6
 265 497 l 6
 265 537 244.529296875 568 217 568 c 4
 189.470703125 568 169 537 169 497 c 6
 169 483 l 6
EndSplineSet
EndChar

StartChar: ordmasculine
Encoding: 186 186 115
Width: 478
Flags: W
HStem: 0 129<32 446> 193 108<191.16 286.84> 583 108<191.16 286.84>
VStem: 32 139<320.199 563.801> 307 139<320.199 563.801>
LayerCount: 2
Fore
SplineSet
32 129 m 5
 446 129 l 5
 446 0 l 5
 32 0 l 5
 32 129 l 5
32 522 m 6
 32 627 110 691 239 691 c 4
 368 691 446 627 446 522 c 6
 446 362 l 6
 446 257 368 193 239 193 c 4
 110 193 32 257 32 362 c 6
 32 522 l 6
171 372 m 6
 171 332 200 301 239 301 c 4
 278 301 307 332 307 372 c 6
 307 512 l 6
 307 552 278 583 239 583 c 4
 200 583 171 552 171 512 c 6
 171 372 l 6
EndSplineSet
EndChar

StartChar: ordfeminine
Encoding: 170 170 116
Width: 478
Flags: W
HStem: 0 129<32 446> 190 108<189.309 285.423> 584 108<189.309 285.423> 665 20G<307 446>
VStem: 32 139<317.199 564.801> 307 139<200 227.95 311.387 570.613 654.05 685>
LayerCount: 2
Fore
SplineSet
307 333.267578125 m 1xec
 307 548.732421875 l 1
 293.90234375 570.024414062 269.037109375 584 239 584 c 0
 200 584 171 553 171 513 c 2
 171 369 l 2
 171 329 200 298 239 298 c 0
 269.037109375 298 293.90234375 311.975585938 307 333.267578125 c 1xec
446 685 m 1xdc
 446 200 l 1
 307 200 l 1
 307 227.950195312 l 1
 280.39453125 203.383789062 243.741210938 190 199 190 c 0
 94.927734375 190 32 254 32 359 c 2
 32 523 l 2
 32 628 94.927734375 692 199 692 c 0xec
 243.741210938 692 280.39453125 678.616210938 307 654.049804688 c 1
 307 685 l 1
 446 685 l 1xdc
32 129 m 1
 446 129 l 1
 446 0 l 1
 32 0 l 1
 32 129 l 1
EndSplineSet
EndChar

StartChar: copyright
Encoding: 169 169 117
Width: 838
Flags: W
HStem: -10 108<300.902 537.098> 151 108<387.981 446.684> 424 108<387.981 446.684> 583 108<300.902 537.098>
VStem: 32 139<207.243 481.543> 240 139<267.019 415.981> 455 139<265.361 310 373 417.639> 667 139<207.243 481.543>
LayerCount: 2
Fore
SplineSet
240 383 m 6
 240 475.573964497 307.826086957 532 420 532 c 4
 528.434782609 532 594 484.79245283 594 393 c 6
 594 373 l 5
 455 373 l 5
 455 401.732394366 440.073529412 424 420 424 c 4
 396.485294118 424 379 401.732394366 379 373 c 6
 379 310 l 6
 379 281.267605634 396.485294118 259 420 259 c 4
 440.073529412 259 455 281.267605634 455 310 c 5
 594 310 l 5
 594 290 l 6
 594 198.20754717 528.434782609 151 420 151 c 4
 307.826086957 151 240 207.426035503 240 300 c 6
 240 383 l 6
32 422 m 2
 32 589.130177515 177.826086957 691 419 691 c 0
 660.173913043 691 806 589.130177515 806 422 c 2
 806 269 l 2
 806 95.6568047337 660.173913043 -10 419 -10 c 0
 177.826086957 -10 32 95.6568047337 32 269 c 2
 32 422 l 2
171 279 m 2
 171 177.028169014 276.764705882 98 419 98 c 0
 561.235294118 98 667 177.028169014 667 279 c 2
 667 412 l 2
 667 508.338028169 561.235294118 583 419 583 c 0
 276.764705882 583 171 508.338028169 171 412 c 2
 171 279 l 2
EndSplineSet
EndChar

StartChar: dotlessi
Encoding: 305 305 118
Width: 215
Flags: W
HStem: 0 21G<38 177> 0 21G<38 177> 492 20G<38 177>
VStem: 38 139<0 512>
LayerCount: 2
Fore
SplineSet
38 512 m 1xb0
 177 512 l 1
 177 0 l 1
 38 0 l 1
 38 512 l 1xb0
EndSplineSet
EndChar
